<svg xmlns="http://www.w3.org/2000/svg" xmlns:xlink="http://www.w3.org/1999/xlink" width="1000" height="1000" viewBox="0 0 1000 1000"><defs><clipPath id="b"><rect width="1000" height="1000"/></clipPath></defs><g id="a" clip-path="url(#b)"><rect width="1000" height="1000" fill="#fff"/><rect width="1000" height="1000" fill="#fff"/><path d="M4.3,532.708a4.294,4.294,0,0,1-4.225-5.06L95.118,3.528a4.294,4.294,0,0,1,8.45,0L118.919,88.18a101.64,101.64,0,0,1,22.289-7.5c48.9-10.394,116.9,51.681,118.618,58.917s-36.356,87.654-85.254,98.048a101.159,101.159,0,0,1-28.185,2l52.229,288a4.294,4.294,0,0,1-4.225,5.06Z" transform="translate(486.178 236.617)" fill="#2f2f2f"/><path d="M44.97,21.786C60.043,83.2,19.21,77.817,1.429,184c-16.5,98.538,114.838,312.1,140.847,343.537,1.9,2.3,1.727,2.256,3.625,3.224a9.48,9.48,0,0,0,5.1.819c11.539-1.436,38.612-5.193,48.917-7.748,1.462-.362,4.746-.721,6.187-2.607s1.1-3.016,1.268-4.923c2.71-31.122,8.477-279.824,8.477-279.824s11.356-69.328-20.818-131.954S29.9-39.624,44.97,21.786Z" transform="translate(337.101 220.436) rotate(9)" fill="#2f2f2f"/><path d="M28.4,37.111l-8.938-8.938L10.52,37.111A6.162,6.162,0,0,1,1.805,28.4l8.938-8.938L1.8,10.52A6.163,6.163,0,0,1,10.52,1.805l8.938,8.938L28.4,1.805a6.162,6.162,0,0,1,8.715,8.715l-8.938,8.938L37.111,28.4A6.162,6.162,0,1,1,28.4,37.111Z" transform="translate(629.427 345.395)" fill="#fff"/><path d="M.007.245S16.462-.887,19.127,1.715s5.5,17.343,5.5,17.343S9.1,24.2,4.367,18.876.007.245.007.245Z" transform="translate(724.045 363.98) rotate(41)" fill="#fff"/><path d="M17.819,10.87a3,3,0,0,1,5.8,0L40.43,73.92a3,3,0,0,1-2.9,3.773H3.9a3,3,0,0,1-2.9-3.773Z" transform="matrix(0.225, 0.974, -0.974, 0.225, 710.997, 552.69)" fill="#2f2f2f"/></g></svg>